/vscmnt/brussel_pixiu_data/_data_brussel/112/vsc11236/PredSimResults/SUBJ06opt3D/weighted-LRposFixed/expIG/worker_05.mot
version=1
nRows=5
nColumns=50
inDegrees=yes
endheader
                time	         pelvis_tilt	         pelvis_list	     pelvis_rotation	           pelvis_tx	           pelvis_ty	           pelvis_tz	       hip_flexion_r	     hip_adduction_r	      hip_rotation_r	        knee_angle_r	       ankle_angle_r	         mtp_angle_r	       hip_flexion_l	     hip_adduction_l	      hip_rotation_l	        knee_angle_l	       ankle_angle_l	         mtp_angle_l	    lumbar_extension	      lumbar_bending	     lumbar_rotation	 ercspn_r/activation	 intobl_r/activation	 extobl_r/activation	    abd_r/activation	    add_r/activation	hamstrings_r/activation	bifemsh_r/activation	glut_max_r/activation	iliopsoas_r/activation	rect_fem_r/activation	  vasti_r/activation	gastroc_r/activation	 soleus_r/activation	tib_ant_r/activation	 ercspn_l/activation	 intobl_l/activation	 extobl_l/activation	    abd_l/activation	    add_l/activation	hamstrings_l/activation	bifemsh_l/activation	glut_max_l/activation	iliopsoas_l/activation	rect_fem_l/activation	  vasti_l/activation	gastroc_l/activation	 soleus_l/activation	tib_ant_l/activation	
          0.00000000	         -5.60052498	         -0.92660778	          3.33944736	          0.00000000	          0.93500810	         -0.01212189	         30.62324578	         -0.69024323	         -4.73755909	         -7.26944649	         -0.18053576	          0.21633971	         -8.31580436	         -0.35319443	         -6.03533429	        -10.92180517	         10.51737306	         30.23085075	         -4.97606218	         -0.59940885	         -7.76856010	          0.19012325	          0.16650577	          0.01000041	          0.01000010	          0.26295363	          0.05689070	          0.07415103	          0.01576096	          0.13426035	          0.01782390	          0.01000023	          0.01000040	          0.01000003	          0.48803241	          0.11163588	          0.01000005	          0.01000012	          0.12020658	          0.01000116	          0.01000096	          0.28300287	          0.01289851	          0.59538748	          0.01478229	          0.01000022	          0.24785452	          0.41289392	          0.02620164	
          0.01296911	         -5.73405431	         -0.83104590	          3.30277943	          0.01563544	          0.93302968	         -0.01085725	         30.88883386	         -0.50936969	         -4.55372983	         -8.96739502	         -0.43941973	          0.21897936	         -8.71703933	         -0.40551192	         -6.52201411	        -11.70156209	          9.85438011	         31.98594590	         -4.62381317	         -0.27607709	         -8.32485469	          0.18366823	          0.13691218	          0.01000034	          0.01000002	          0.41343375	          0.06559125	          0.06097215	          0.04428808	          0.11039770	          0.01465610	          0.01000078	          0.01000334	          0.01798743	          0.48079925	          0.14209929	          0.01000005	          0.01000012	          0.09884177	          0.01000107	          0.01000085	          0.27050562	          0.01060909	          0.62219382	          0.01216572	          0.01000019	          0.23613268	          0.39764515	          0.02154472	
          0.02593822	         -5.84289713	         -0.78422654	          3.25510684	          0.03180032	          0.93127041	         -0.00957560	         30.97538745	         -0.36213125	         -4.19628283	        -10.70162212	         -0.64065597	          0.19534580	         -9.02130041	         -0.53652479	         -6.98959266	        -12.74732501	          9.06339790	         33.82054512	         -4.23523662	          0.11852144	         -8.83751684	          0.15299525	          0.11257836	          0.01000029	          0.01000011	          0.33995300	          0.07473495	          0.05013563	          0.04269871	          0.09077626	          0.01205132	          0.02349230	          0.01216380	          0.01479050	          0.51653990	          0.13553730	          0.01000003	          0.01000013	          0.08127422	          0.01000105	          0.01000085	          0.25746830	          0.01000026	          0.60898547	          0.01000484	          0.01000012	          0.20607653	          0.37781194	          0.01771549	
          0.03890733	         -5.92961135	         -0.77968500	          3.18896742	          0.04831629	          0.92980408	         -0.00818172	         30.87721057	         -0.19865680	         -3.95132899	        -12.15030583	         -1.00783238	          0.18588631	         -9.15957145	         -0.75164112	         -7.45009598	        -14.15297549	          8.11294767	         35.74633968	         -3.83336978	          0.56140494	         -9.29694711	          0.13668278	          0.09256936	          0.01000034	          0.01000048	          0.27954118	          0.07862761	          0.04122520	          0.05290586	          0.07464222	          0.01000017	          0.06645778	          0.01000210	          0.01216174	          0.56281687	          0.13811038	          0.01000004	          0.01000015	          0.06682901	          0.01000124	          0.01031309	          0.22738969	          0.01000228	          0.55776720	          0.01000086	          0.01000010	          0.16944978	          0.35146299	          0.01456685	
          0.05187645	         -5.99549708	         -0.81533631	          3.10305654	          0.06499856	          0.92871909	         -0.00666316	         30.63308769	         -0.01468778	         -3.90407145	        -13.36638718	         -1.42015325	          0.15796191	         -9.08420969	         -1.05547568	         -7.91886411	        -15.96792874	          6.94987828	         37.76364282	         -3.44121308	          1.04523155	         -9.69801534	          0.13063569	          0.07611664	          0.01000031	          0.04773800	          0.24852516	          0.08076646	          0.03389847	          0.06021690	          0.06137575	          0.01000019	          0.13517297	          0.01000035	          0.01000022	          0.61224747	          0.16385724	          0.01000004	          0.01000015	          0.05495121	          0.01000140	          0.01738776	          0.20183740	          0.01000039	          0.48000208	          0.01000070	          0.01000006	          0.13933279	          0.32345034	          0.01197784	
